<?xml version="1.0" encoding="UTF-8"?><svg xmlns="http://www.w3.org/2000/svg" xmlns:xlink="http://www.w3.org/1999/xlink" viewBox="0 0 331.67 359.25"><defs><style>.cls-1{fill:url(#GradientFill_1);}.cls-1,.cls-2,.cls-3,.cls-4,.cls-5{fill-rule:evenodd;}.cls-2{fill:#a7a9ac;}.cls-2,.cls-4{mix-blend-mode:multiply;opacity:.5;}.cls-6{isolation:isolate;}.cls-3{fill:#414142;}.cls-4{fill:#939598;}.cls-5{fill:#f58220;}</style><linearGradient id="GradientFill_1" x1="233.18" y1="45.68" x2="87.04" y2="134.92" gradientUnits="userSpaceOnUse"><stop offset="0" stop-color="#ffcb05"/><stop offset=".44" stop-color="#f58220"/><stop offset="1" stop-color="#9d2721"/></linearGradient></defs><g class="cls-6"><g id="logo_name"><g><path class="cls-3" d="M327.51,282.98l1.38-3.59c.04-.14,.09-.27,.16-.4,.06-.11,.13-.21,.23-.29,.09-.08,.21-.14,.33-.17,.13-.04,.26-.05,.39-.05h.94c.1,0,.21,.01,.3,.05,.09,.03,.18,.08,.25,.15,.06,.07,.11,.15,.14,.23,.03,.09,.04,.19,.04,.29v6.01c0,.07-.02,.14-.06,.2-.05,.06-.12,.1-.19,.13-.07,.02-.16,.04-.24,.05-.11,.01-.23,.02-.34,.02s-.23,0-.34-.02c-.08-.01-.16-.02-.24-.05-.07-.02-.14-.07-.19-.12-.05-.06-.07-.13-.07-.21v-4.51l-1.65,4.56c-.02,.07-.06,.14-.12,.19-.06,.05-.12,.09-.2,.11-.08,.02-.16,.04-.25,.04-.11,0-.21,0-.32,0s-.22,0-.33-.01c-.08,0-.17-.02-.25-.05-.06-.02-.13-.06-.19-.1-.05-.05-.09-.11-.11-.18l-1.58-4.52v4.47c0,.07-.02,.14-.06,.2-.05,.06-.12,.1-.2,.13-.08,.02-.16,.04-.24,.05-.11,.01-.23,.02-.34,.02s-.23,0-.34-.02c-.08-.01-.16-.02-.24-.05-.07-.02-.14-.06-.2-.13-.04-.06-.06-.13-.06-.2v-6.01c0-.2,.05-.39,.2-.53,.14-.13,.32-.19,.51-.19h.91c.15,0,.31,.01,.46,.04,.13,.03,.26,.08,.37,.16,.11,.08,.2,.18,.26,.3,.07,.13,.13,.26,.16,.4l1.33,3.6h0Zm-9.16-3.02h-1.9c-.08,0-.15-.03-.2-.07-.05-.05-.09-.11-.12-.17-.02-.07-.04-.14-.05-.21-.01-.09-.02-.19-.02-.28s0-.19,.02-.29c0-.07,.02-.15,.05-.22,.02-.06,.06-.12,.12-.17,.06-.04,.13-.06,.2-.06h5.55c.07,0,.13,.02,.19,.06,.06,.04,.1,.1,.13,.17,.03,.07,.04,.15,.05,.22,.01,.1,.02,.19,.02,.29s0,.19-.02,.28c0,.07-.02,.15-.05,.22-.03,.07-.06,.13-.12,.17-.06,.05-.13,.07-.2,.07h-1.9v5.26c0,.08-.03,.15-.08,.21-.05,.06-.12,.09-.2,.12-.08,.02-.16,.04-.25,.05-.12,.01-.24,.02-.36,.02s-.24,0-.36-.02c-.08-.01-.17-.02-.25-.05-.07-.02-.14-.06-.2-.12-.05-.06-.08-.13-.08-.21v-5.26Z"/><g><path class="cls-5" d="M137.3,290.74l-.63,11.81c-.07,1.29-1.06,2.32-2.34,2.45l-20.49,2.02c-.76,.08-1.45-.15-2.01-.68-.57-.52-.85-1.18-.84-1.95l.15-11.46c.02-1.32,1-2.4,2.31-2.55l20.98-2.36c.79-.09,1.5,.15,2.07,.69,.58,.54,.86,1.24,.81,2.03Z"/><path class="cls-3" d="M289.65,314.77l.72-24.99c.02-.73,.31-1.35,.85-1.85,.54-.49,1.19-.72,1.92-.67l21.38,1.36c1.43,.09,2.52,1.33,2.43,2.76l-3.69,57.87c-.06,.88-.51,1.62-1.27,2.07-.76,.45-1.63,.49-2.43,.11l-30.52-14.39,1.07,17.13c.05,.72-.17,1.35-.65,1.89-.48,.54-1.08,.83-1.8,.87l-20.28,1.2c-.75,.04-1.41-.2-1.95-.72-.54-.52-.81-1.17-.8-1.92l1.02-62.09c.02-1.01,.57-1.87,1.48-2.31,.92-.44,1.93-.32,2.72,.3l29.8,23.37h0Zm-256.77,10.6l19.9,15.83c1.08,.86,1.3,2.41,.51,3.53l-9.45,13.41c-.44,.63-1.07,1-1.83,1.08-.76,.09-1.45-.13-2.03-.64l-14.97-13.35-.14,8.24c-.02,1.32-1.01,2.4-2.32,2.54l-18.35,1.99c-.75,.08-1.43-.13-2-.63-.57-.5-.87-1.14-.88-1.9l-.06-2.73c-.4-19.15-.81-38.3-1.21-57.45l-.05-2.28c-.03-1.35,.97-2.49,2.31-2.64l20.92-2.36c.77-.09,1.47,.14,2.04,.66,.57,.52,.86,1.2,.85,1.97l-.21,12.04,12.28-16.08c.49-.64,1.16-.99,1.97-1.02,.8-.03,1.5,.26,2.04,.86l13.7,15.26c.48,.54,.7,1.17,.66,1.89-.04,.72-.34,1.32-.88,1.8l-22.78,19.99h0Zm51.3,9.37l18.78-3.7c.77-.15,1.49,.02,2.11,.5,.62,.49,.96,1.15,.99,1.93l.83,18.3c.06,1.39-.97,2.58-2.35,2.71l-41.53,3.96c-.75,.07-1.43-.15-1.99-.66-.56-.5-.85-1.15-.86-1.91l-.58-62.54c-.01-1.32,.95-2.43,2.26-2.6l21.56-2.84c.79-.11,1.52,.12,2.1,.67,.59,.54,.87,1.24,.84,2.04l-2.15,44.13h0Zm47.43,21.26l-18.43,1.99c-.77,.08-1.46-.14-2.03-.66-.57-.52-.86-1.19-.85-1.96l.54-40.92c.02-1.43,1.2-2.59,2.63-2.57l19.96,.24c.74,0,1.37,.29,1.87,.82,.5,.54,.74,1.18,.7,1.92l-2.07,38.69c-.07,1.28-1.04,2.31-2.32,2.45h0Zm43.9-30.63l19.9,15.83c1.08,.86,1.3,2.41,.5,3.53l-9.45,13.41c-.44,.63-1.07,1-1.83,1.08-.76,.09-1.45-.13-2.03-.64l-14.97-13.35-.14,8.24c-.02,1.32-1.01,2.4-2.32,2.54l-18.35,1.99c-.75,.08-1.43-.13-2-.63-.57-.5-.87-1.14-.88-1.9l-1.32-62.47c-.03-1.35,.97-2.49,2.31-2.64l20.92-2.36c.77-.09,1.47,.14,2.04,.66,.58,.52,.86,1.2,.85,1.97l-.21,12.04,12.28-16.08c.49-.64,1.16-.99,1.97-1.02,.8-.03,1.5,.27,2.04,.86l13.69,15.26c.48,.54,.7,1.17,.66,1.89-.04,.72-.34,1.32-.88,1.8l-22.78,19.99h0Zm50.4-14.75l-.08,3.83,13.02-.88c.8-.05,1.51,.23,2.07,.81,.55,.59,.79,1.31,.69,2.11l-1.23,9.64c-.16,1.24-1.14,2.18-2.39,2.27l-12.7,.93-.17,4.41,22.5-2.01c.76-.07,1.45,.17,2.01,.69,.56,.52,.84,1.18,.82,1.95l-.35,18.05c-.03,1.37-1.1,2.48-2.47,2.55l-42.57,2.18c-.74,.04-1.38-.2-1.92-.7-.54-.5-.81-1.14-.82-1.87l-.57-60.42c-.01-1.38,1.04-2.52,2.42-2.62l43.61-3.06c.81-.06,1.52,.22,2.08,.81,.55,.59,.79,1.32,.69,2.12l-2.09,16.11c-.17,1.27-1.2,2.21-2.47,2.26l-20.09,.83Z"/><path class="cls-4" d="M314.36,288.61h.15c1.43,.1,2.52,1.34,2.43,2.77l-3.69,57.87c-.06,.88-.51,1.62-1.27,2.07-.76,.45-1.63,.49-2.43,.11l-30.52-14.39,1.07,17.13c.05,.72-.17,1.35-.65,1.89-.48,.54-1.08,.83-1.8,.87l-20.28,1.2c-.75,.04-1.41-.2-1.95-.72-.54-.52-.81-1.17-.8-1.92l.02-1.42c.08,0,.15,0,.23,0l20.29-1.2c.71-.04,1.32-.33,1.79-.87,.48-.54,.69-1.17,.65-1.89l-1.07-17.13,30.53,14.39c.8,.38,1.66,.34,2.43-.11,.76-.45,1.22-1.19,1.27-2.07l3.61-56.57h0Zm-88.53,25.84l.08-3.83,12.29-.51,7.8-.32c1.28-.05,2.31-1,2.47-2.26l2.09-16.11c.1-.8-.13-1.53-.69-2.12-.53-.56-1.2-.84-1.96-.81l-1.94,14.98c-.16,1.27-1.2,2.21-2.47,2.26l-20.09,.83-.08,3.83-.09,4.24,2.6-.18h0Zm-88.53-23.71l-.63,11.81c-.07,1.29-1.06,2.32-2.34,2.45l-20.49,2.02c-.76,.08-1.45-.15-2.01-.68-.57-.52-.85-1.18-.84-1.95v-.05l21.28-2.09c1.43-.14,2.55-1.29,2.61-2.73l.44-11.46c.44,.1,.84,.32,1.18,.65,.58,.54,.86,1.24,.81,2.03h0Zm-86.14,49.18l1.63,1.29c1.08,.86,1.3,2.41,.51,3.53l-9.45,13.41c-.44,.63-1.07,1-1.83,1.08-.76,.09-1.45-.13-2.03-.64l-14.97-13.35-.14,8.24c-.02,1.32-1.01,2.4-2.32,2.54l-18.35,1.99c-.75,.08-1.43-.13-2-.63-.57-.5-.87-1.14-.88-1.9l-.03-1.52c.13,0,.27,0,.41-.01l18.35-1.99c1.31-.14,2.3-1.22,2.32-2.54l.14-8.23,14.97,13.35c.57,.51,1.26,.73,2.03,.64,.76-.09,1.39-.46,1.83-1.09l9.45-13.4c.17-.24,.29-.5,.37-.76h0Zm-27.57-51.93c.63,.01,1.19,.24,1.68,.68,.57,.52,.86,1.2,.85,1.97l-.21,12.04-2.63,3.45,.32-18.13h0Zm30.44,11.65l1.85,2.06c.48,.54,.7,1.17,.66,1.89-.04,.72-.34,1.32-.88,1.8l-22.78,19.99-3.74-2.97,24.02-21.08c.51-.45,.81-1.02,.87-1.69h0Zm49.59,31.37c.52,.03,1.01,.21,1.44,.55,.62,.48,.96,1.14,.99,1.93l.83,18.3c.06,1.39-.97,2.58-2.35,2.71l-41.53,3.96c-.75,.07-1.43-.15-1.99-.66-.56-.5-.85-1.15-.86-1.91v-1.49c.11,0,.23,0,.35-.01l41.53-3.96c1.38-.13,2.41-1.32,2.35-2.71l-.76-16.72h0Zm-19.86-43.12l-2.32,47.39,2.73-.53,2.15-44.13c.04-.8-.25-1.5-.84-2.04-.49-.46-1.08-.69-1.73-.69h0Zm47.84,68.12l-18.43,1.99c-.77,.08-1.46-.14-2.03-.66-.57-.52-.86-1.19-.85-1.96l.02-1.43c.12,0,.24,0,.36-.02l18.43-1.99c1.28-.14,2.25-1.16,2.32-2.45l2-37.36h0c.74,0,1.37,.29,1.87,.82,.5,.54,.74,1.18,.7,1.92l-2.07,38.69c-.07,1.28-1.04,2.31-2.32,2.45h0Zm62.18-16.09l1.63,1.29c1.08,.86,1.3,2.41,.5,3.53l-9.45,13.41c-.44,.63-1.07,1-1.83,1.08-.76,.09-1.45-.13-2.03-.64l-14.97-13.35-.14,8.24c-.02,1.32-1.01,2.4-2.32,2.54l-18.35,1.99c-.75,.08-1.43-.13-2-.63-.57-.5-.87-1.14-.88-1.9l-.03-1.52c.13,0,.27,0,.41-.01l18.35-1.99c1.31-.14,2.3-1.22,2.32-2.54l.14-8.23,14.97,13.35c.58,.51,1.27,.73,2.03,.64,.76-.09,1.39-.46,1.83-1.09l9.45-13.4c.17-.24,.29-.5,.37-.76h0Zm-27.57-51.93c.63,.01,1.2,.24,1.68,.68,.58,.52,.86,1.2,.85,1.97l-.21,12.04-2.63,3.45,.32-18.13h0Zm30.44,11.65l1.85,2.06c.48,.54,.7,1.17,.66,1.89-.04,.72-.34,1.32-.88,1.8l-22.78,19.99-3.74-2.97,24.02-21.08c.52-.45,.81-1.02,.87-1.69h0Zm42.29,13.93c.75-.02,1.43,.26,1.96,.82,.55,.59,.79,1.31,.69,2.11l-1.23,9.64c-.13,.99-.78,1.79-1.68,2.12l-6.34,.57-7.07,.52-.17,4.41-2.67,.24,.33-8.72,12.7-.93c1.25-.09,2.23-1.03,2.39-2.27l1.08-8.5h0Zm8.97,18.16l-.32,16.63c-.02,1.37-1.1,2.48-2.47,2.55l-42.57,2.18c-.08,0-.17,0-.25,0v1.49c.02,.74,.3,1.37,.83,1.87,.53,.5,1.18,.74,1.92,.7l42.57-2.18c1.37-.07,2.44-1.18,2.47-2.55l.35-18.05c.02-.77-.27-1.43-.82-1.95-.49-.45-1.06-.69-1.7-.7Z"/></g></g></g><g id="mascot"><g><path class="cls-3" d="M250.03,171.08c-4.66,.36-9.2,.26-13.53-.4,7.11-3.77,12.94-7.9,17.52-12.4,10.4-10.22,13.91-21.88,11.82-33.72-6.46-1.3-13.03-1.1-19.69,.61,6.1-2.69,12.46-3.83,19.09-3.44-.48-1.92-1.11-3.85-1.88-5.78-7.22-.06-13.71,1.42-19.46,4.43,4.67-4.05,10.66-6.64,17.98-7.79-.87-1.79-1.85-3.58-2.95-5.37-7.57-12.27-18.21-20.09-28.63-29.48-2.29-2.06-4.7-4.34-6.58-6.82,.51-.92,.8-1.97,.86-3.02,1.65-.12,3.24,.65,4.14,2.09,.09,.19,.17,.4,.25,.59,3.82,9.35,12.49,5.36,10.65-2.68-1.64-7.16-9.23-11.76-16.14-12.52-15.72-1.72-20.03,16.61-11.6,27.66,9.51,12.45,32.32,22.28,25.06,43.08-2.08,5.97-7.87,10.95-14.18,11.76,2.63,18.7,1.61,26.67-10.29,39.13,9.96-12.06,4.53-18.03,4.72-31.11-8.99,28.83-29.65,44.28-81.82,43.84h-.08c20.33,9.84,46.41,8.17,65.37,1.85-31.11,13.31-56.5,15.22-76.16,5.74-10.43,8.86-13.43,17.44-20.43,27.47-4.13,5.91-9.95,10.43-18.77,12.5-5.35,1.25-12.05-.42-16.97-2.62-5.88-2.63-13.61-8.09-14.12-15.16-.18-2.52,.94-5.14,2.74-6.89,.16-.16,.53-.49,.82-.65,1.58,1.08,2.14,2.54,3.68,3.25,3.61,1.68,8.35-1.96,9.26-5.46,1.19-4.57-2.55-8.36-6.37-10.14-8.66-4.02-20.75,1.04-25.28,9.07-4.43,7.85-2.83,17.73,.68,25.6,7.33,16.44,23.52,28.71,41.19,32.29,3.22-8.08,3.93-17.08,2.13-27,3.32,8.72,3.88,17.93,1.67,27.63,2.11,.27,4.24,.42,6.36,.44,1.68-9.09,1-18.17-2.04-27.23,4.46,8.42,6.42,17.46,5.86,27.11,1.06-.07,2.12-.18,3.18-.32,1.34-.18,2.66-.42,3.97-.69,.23-11.29-2.21-21.06-7.32-29.3,6.67,6.65,10.79,15.98,12.37,27.99,22.13-6.81,39.83-26.57,49.95-46.69,1.16,25.54,18.75,39.07,43.56,39.97,5.01,.18,9.98-.38,14.95-.92,4.81-.53,10.6-1.32,14.98,1.23,4.09,2.38,.21,7.12-2.59,8.94-.55,.36-1.19,.65-1.78,.94-2.99,1.46-5.88,3.76-6.98,7.01-2.29,6.73,4.14,11.4,10.64,8.24,10.66-5.17,16.94-14.69,18.51-26.33,2.87-21.21-18.86-29.68-36.48-30.85-7.04-.46-11.85-.79-10.99-9.27,.99-9.69,7.06-11.56,5.78-21.5,1.42,3.18,1.82,5.25,1.15,11.46,28.84,8.42,53,1.29,67.59-26.58,5.51-10.53,6.58-6.21,10.47-2.14,5.48,5.74,15.04,5.82,21.44,1.58,4.89-3.24,8.46-8.81,9.18-14.64,.38-3.08,.04-6.44-1.83-9.02-3.64-5.03-12.32-3.65-15.26,1.43-1.25,2.17-.85,5.19,1.27,6.66,1.84,1.28,3.92,.68,5.57-.52,0,.42-.07,.85-.13,1.25-.65,3.9-5.14,6.51-8.86,5.26-5.65-1.89-8.05-25.15-29.76-7.55-4.1,3.33-8.97,6.97-17.45,7.91h0Zm-142.14,14.17h0c4.9,5.04,10.34,9.02,16.3,11.94l.19-.13c-8.8,5.84-16.13,12.87-21.99,21.08-10.61-1.48-20.42-6.72-27.88-14.77-13.59-14.65-17.31-35.49-16.25-54.83,.28-5.1-.71-10.69-3.61-14.98-1.46-2.15-4.41-5.13-7.33-4.39-4.52,1.15-3.48,8.36-3.64,11.64-.23,4.8-2.43,9.63-6.51,12.35-2.75,1.83-5.98,2.42-9.22,1.87-4.88-.83-10.11-4.91-12.05-9.47-1.41-3.29-1.49-8.51,2.89-9.31,2.25-.41,4.15,.97,5.12,2.92,.92,1.86,.96,3.76,2.97,4.97,.72,.43,1.6,.65,2.42,.41,2.09-.62,2.13-3.53,1.89-5.25-.19-1.37-.62-2.73-1.03-4.05-2.62-8.48-.74-15.33,6.76-20.37,4.69-3.15,10.05-4.72,15.71-4.37,17.44,1.06,31.25,18.61,32.83,35.24,.79,8.37,.34,18.63,3.65,26.31,2.28,5.3,6.48,10.83,12.21,12.59,2.35,.72,4.54,.88,6.58,.6Z"/><path class="cls-2" d="M258.68,121.85c2.15-.21,4.34-.25,6.55-.12-.48-1.92-1.11-3.85-1.88-5.77-1.7-.01-3.36,.06-4.99,.22,.2,1.94,.3,3.83,.31,5.68h0Zm-22.16,48.82c7.1-3.76,12.93-7.89,17.5-12.39,10.4-10.22,13.92-21.88,11.82-33.72-2.38-.48-4.77-.76-7.18-.83-.67,20.44-13.61,34.97-38.83,43.59,6.22,1.59,11.78,2.7,16.69,3.34h0Zm-34.42,40.77c-5.41,17.98-1.66,22.35,13.49,26.13,23.49,5.88,32.47,17.75,26.93,35.63,3.1-4.48,5.06-9.76,5.84-15.58,2.87-21.21-18.86-29.68-36.48-30.85-7.04-.46-11.85-.79-10.99-9.27,.21-2.07,.65-4.08,1.21-6.07h0Zm-94.41,.05c-30.98-5.75-47.46-26.74-49.43-62.95-1.07,19.35,2.66,40.18,16.25,54.83,7.47,8.05,17.28,13.29,27.88,14.77,1.65-2.31,3.42-4.53,5.3-6.65h0Zm-26.74,55.11c.68-1.71,1.25-3.46,1.7-5.25-7.36-.2-15.1-1.5-23.22-3.93,6.5,4.44,13.87,7.62,21.52,9.18h0Zm24.82-8.7c20.57-7.16,37.37-25.37,50.39-54.65-.23,.83,.08,5.93,.92,15.29-10.12,20.13-27.82,39.89-49.95,46.69-.34-2.57-.79-5.01-1.36-7.33h0Zm-10.88,2.7c.16,2.28,.18,4.6,.04,6.95,1.06-.07,2.12-.18,3.18-.32,1.34-.18,2.66-.41,3.97-.69,.05-2.55-.03-5.02-.25-7.42-2.27,.62-4.58,1.12-6.94,1.48h0Zm-9.13,.76c-.22,1.94-.56,3.89-1.01,5.87,2.11,.28,4.24,.42,6.36,.44,.41-2.23,.68-4.46,.81-6.68-2.03,.22-4.08,.34-6.17,.37h0Zm224.14-101.7c-.29,1.59-1.51,3.11-3.66,4.55,0,.42-.07,.85-.13,1.25-.52,3.11-3.46,5.39-6.52,5.57,6.23,.36,9.67-3.43,10.32-11.37h0Zm-32.31,17.49c-.64,.95-1.35,2.18-2.17,3.73-14.59,27.87-38.75,35-67.59,26.58,1.2-7.44-.68-13.08-4.78-16.94,32.48,13.13,59.75,7.92,74.54-13.37h0Zm-19.56-63.79c1.24-.3,2.53-.56,3.86-.77-.87-1.79-1.85-3.58-2.95-5.37-1.08-1.76-2.23-3.42-3.43-5.01,1.15,3.87,1.99,7.58,2.51,11.15Z"/><path class="cls-1" d="M191.23,70.02c.63-.07,1.26-.08,1.89,0,6.44,.67,9.99,7.46,11.66,12.91,1.31,4.26,1.88,8.85,1.77,13.29-.09,3.39-.58,6.8-1.6,10.04-1.78,5.66-5.16,10.53-9.43,14.6h0c3.11,11.67,8.49,23.08,15.52,32.9-.47-1.15-.93-2.3-1.38-3.46-1.64-4.21-3.14-8.49-4.52-12.8-1.01-3.17-1.97-6.36-2.83-9.57-.07-.27,0-.54,.2-.73,.2-.2,.46-.27,.73-.2,1.78,.49,3.62,.79,5.47,.82,.09,0,.17,.02,.25,.05,1.28,.47,2.48,1.11,3.59,1.9,5.74,4.06,8.26,11.46,9.11,18.17,1.08,8.5-.16,17.68-2.78,25.81-2.98,9.26-8.17,18.42-15.69,24.74-.08,.07-.17,.11-.27,.14-.75,.22-1.51,.43-2.26,.63-.09,.03-.19,.05-.28,.07-5.77,1.54-11.65,2.66-17.57,3.41-6.55,.83-13.18,1.21-19.78,1-13.39-.43-27.97-3.36-38.73-11.81-5.4-4.24-9.46-9.59-12.11-15.91-.7-1.68,.29-3.24,1.21-4.59,.33-.49,.67-.97,.97-1.48,5.38-9.19,9.75-19.55,10.07-30.34,.01-.38,.29-.69,.67-.73,4.99-.6,9.95-1.59,14.72-3.18-19.3,2.06-36.64-6.31-42.15-25.95-5.97-21.24-42.06-33.51-45.91-57.27-.99-6.12,.42-12.01,3.67-17.25,5.53-8.94,13.21-16.75,21.86-22.7,.14-.1,.29-.14,.46-.13l9.61,.38c7.47-4.42,15.42-6.98,24.02-8.03h0c-7.83,.28-17.98,2.79-24.98,6.08-.12,.06-.24,.08-.38,.07l-8.54-.64c-7.98,4.45-12.72,10.82-18.71,17.4-.57,.63-1.13,1.26-1.69,1.89-.25,.29-.67,.34-.98,.13-.32-.21-.43-.61-.27-.95C70.85-3.63,114.25-6.06,142.83,8.64c.33,.17,.49,.55,.38,.9-.11,.35-.45,.57-.82,.52-1.21-.16-2.42-.27-3.63-.34-1.94-.11-3.88-.1-5.82-.04l-1.18,3.12c-.1,.27-.33,.45-.62,.48-6.26,.71-12.28,2.85-17.86,5.73-.14,.07-.27,.1-.42,.08l-10.59-1.08c-12.76,5.27-26.66,18.67-31.69,31.83,6.95-11.61,20.66-23.25,32.57-29.16,.14-.07,.27-.09,.42-.08l10.97,1.28c6.26-2.67,12.79-4.41,19.56-5.15l1.09-2.67c.12-.3,.41-.48,.73-.47,14.61,.65,25.36,3.75,34.13,15.98,.19,.27,.19,.61,0,.88-.19,.27-.51,.38-.83,.29-4.22-1.23-8.03-1.91-12.45-2.02l-1.05,2.82c-.1,.27-.33,.45-.61,.49-6.13,.77-13.78,2.57-19.5,5.12-.13,.06-.25,.08-.38,.06l-12.08-1.22c-13.86,6.4-32.56,19.61-36.34,34.93h0c6.42-12.99,23.56-25.3,36.87-31.11,.14-.06,.27-.08,.42-.06l12.13,1.85c6.97-2.61,14.28-4.27,21.71-4.79l1.45-3c.14-.29,.42-.45,.74-.43,8.25,.65,16.3,2.77,23.81,6.25,.13,.06,.22,.14,.3,.25,5.98,8.54,11.04,18.31,13.2,28.58,.05,.25-.01,.48-.18,.66-.17,.19-.39,.27-.64,.24-1.82-.19-3.63,.08-5.36,.62h0Zm6.6,21.47c-.02-.33-.23-.58-.49-.6-.26-.02-.49,.21-.54,.54-.8,5.88-3.61,13.29-7.34,17.08-.13,.13-.19,.31-.19,.52,0,.21,.08,.38,.21,.51,.93,.85,2.05,1.39,3.21,1.21,2.18-.35,3.49-2.99,4.17-5.35,1.21-4.18,1.24-9.52,.97-13.9h0Zm-69.42,17.62c-.25-.17-.56-.15-.78,.04-.23,.19-.29,.5-.17,.76,6.71,14.73,16.69,20.01,30.62,9.93,.23-.17,.32-.44,.24-.71-.08-.27-.31-.45-.59-.46-8.88-.48-21.92-4.54-29.32-9.56h0Zm-1.42,69.35c.44-.04,.85-.24,1.19-.56l-4.31-6.84c-.31,.84-.43,1.88-.3,3,.31,2.57,1.84,4.54,3.43,4.41h0Zm1.78-1.36c.48-.9,.7-2.16,.54-3.54-.3-2.56-1.84-4.54-3.42-4.4-.6,.05-1.12,.4-1.52,.95l4.41,6.99h0Zm2.02-3.49c-.08-2.75-1.44-6.48-4.35-7.11-.27-.06-.55-.08-.83-.07-.59,.02-1.17,.2-1.68,.49-1.03,.59-1.78,1.62-2.27,2.71-.59,1.33-.84,2.83-.79,4.28,.05,1.64,.47,3.34,1.32,4.73,.7,1.12,1.73,2.1,3.02,2.38,.27,.06,.55,.08,.83,.08,.51-.02,1.02-.15,1.47-.38,.93-.46,1.66-1.29,2.17-2.21,.81-1.46,1.15-3.23,1.1-4.9h0ZM70.64,62.91c-.06-.06-.15-.07-.23-.03-.08,.04-.13,.11-.13,.19v1.6c0,.07,.03,.12,.07,.16l8.78,7.69c.06,.06,.15,.07,.23,.03,.08-.03,.13-.11,.13-.19v-1.6c0-.07-.03-.12-.07-.16l-8.79-7.69h0Zm0,7.98c-.06-.06-.15-.07-.23-.03-.08,.04-.13,.11-.13,.19v1.6c0,.07,.03,.12,.07,.16l8.78,7.69c.06,.06,.15,.07,.23,.03,.08-.03,.13-.11,.13-.19v-1.6c0-.06-.03-.12-.07-.16l-8.79-7.69h0Zm0-3.6c-.06-.06-.15-.07-.23-.03-.08,.04-.13,.11-.13,.19v1.6c0,.06,.03,.12,.07,.16l8.78,7.69c.06,.06,.15,.07,.23,.04,.08-.04,.13-.11,.13-.2v-1.6c0-.06-.03-.12-.07-.16l-8.79-7.69Z"/><path class="cls-3" d="M66.65,99.35c-1.63-4.32-2.21-9.44-1.73-15.39,1.39,8.6,3.88,15.6,7.48,21,1.3,1.07,2.68,2.09,4.11,3.09-.66-3.32-.72-7.51-.19-12.57,.75,6.06,1.97,11,3.64,14.83,4.15,2.59,8.7,5,13.42,7.46,0-23.6-21.38-27.41-34.13-44.57-1.04,11.47,1.95,19.66,7.4,26.16Z"/><path class="cls-2" d="M64.95,84.18c10.39,8.36,20.83,14.87,21.82,30.07,2.15,1.18,4.36,2.34,6.61,3.51,0-23.6-21.38-27.41-34.13-44.57-.19,2.08-.24,4.05-.18,5.92,1.9,1.79,3.87,3.45,5.83,5.03,0-.06,0-.12,.01-.18,.01,.08,.02,.15,.04,.22h0Zm60.38,93.65c.51,.44,1.08,.67,1.66,.63,.44-.04,.85-.24,1.19-.56l-4.31-6.84c-.05,.14-.1,.28-.14,.43l3.76,5.96c-.34,.32-.74,.52-1.19,.56-.33,.03-.65-.04-.97-.17h0Zm.72,3.27c.21-.01,.41-.03,.61-.08h.04s-.03,0-.03,0c-.51,.29-1.07,.46-1.65,.48-2.74,.08-5.06-3.13-5.17-7.18-.11-3.73,1.68-6.86,4.1-7.41-1.88,1.08-3.16,3.83-3.07,7,.12,4.05,2.43,7.27,5.17,7.18h0Zm2.21-4.83c.36-.86,.51-1.97,.36-3.16-.19-1.63-.88-3.02-1.76-3.78,1.2,.54,2.21,2.2,2.46,4.23,.16,1.37-.06,2.63-.54,3.53l-.52-.82h0ZM102.25,18.01l10.59,1.08c.15,.02,.29-.01,.42-.08,5.58-2.88,11.59-5.02,17.86-5.73,.29-.03,.52-.21,.62-.48l1.18-3.12c1.94-.06,3.88-.06,5.82,.04,.72,.04,1.44,.1,2.16,.17-2.79-.74-5.91-1.31-9.35-1.7l-1.43,3.06c-5.53,.24-11.42,1.89-17.68,4.95l-10.25-.97c-11.01,5.3-20.15,14.1-27.4,26.39,6.57-10.19,17.36-19.44,27.45-23.6h0Zm20.88,17.99c-7.95,3.67-17.5,9.59-24.91,16.85,9.47-10.06,17.82-16.33,25.06-18.81l11.71,.97c6.87-2.72,13.3-4.23,19.29-4.52l1.25-3.34c4.24,.51,8.2,1.54,11.89,3.1-3.54-.92-6.88-1.43-10.67-1.52l-1.05,2.82c-.1,.27-.33,.45-.61,.49-6.13,.77-13.78,2.57-19.5,5.12-.13,.06-.25,.08-.38,.06l-12.08-1.22Z"/></g></g></g></svg>